# xmcd
#
# Track frame offsets:
#	150
#	18097
#	39957
#	59475
#	82150
#	104190
#	124730
#	141030
#
# Disc length: 2142 seconds
#
# Revision: 2
# Processed by: cddbd v1.5.2PL0 Copyright (c) Steve Scherf et al.
# Submitted via: EasyCDDAExtractor 15.3.0.1
#
DISCID=6b085c08
DTITLE=Rey Ruiz - Porque Es Amor
DYEAR=1997
DGENRE=Latin
TTITLE0=Tu No Sabes
TTITLE1=Duele Tanto
TTITLE2=Ven A Mi
TTITLE3=Mi Angel
TTITLE4=Tropiezo Y Sigo
TTITLE5=Porque Es Amor
TTITLE6=No Me Extrañaria
TTITLE7=Eres Tu
EXTD=
EXTT0=
EXTT1=
EXTT2=
EXTT3=
EXTT4=
EXTT5=
EXTT6=
EXTT7=
PLAYORDER=
